<?xml version="1.0" encoding="UTF-8" standalone="no"?>
<svg xmlns="http://www.w3.org/2000/svg" height="512" width="512" version="1.1" viewBox="0 0 512 512">
 <g transform="translate(0 -161.5)">
  <rect style="color-rendering:auto;color:#000000;isolation:auto;mix-blend-mode:normal;paint-order:normal;shape-rendering:auto;solid-color:#000000;image-rendering:auto;fill:#198400" height="512" width="512" y="161.5" x="0"/>
  <path style="stroke-linejoin:round;fill-rule:evenodd;clip-rule:evenodd;stroke-miterlimit:1.414;stroke-width:68.73;fill:#f5f5f5" d="m293.3 303.9c-3.917 0-7.078 3.161-7.078 7.078s3.161 7.148 7.078 7.148h19.52l10.79 23.92-118.9 14.36-10.1-37.73h7.972c3.986 0 7.148-3.161 7.148-7.078 0-3.986-3.162-7.148-7.148-7.148h-24.74c-3.917 0-7.148 3.162-7.148 7.148 0 3.917 3.23 7.078 7.148 7.078h2.062l11.89 44.33-29.21 35.05c-10.24-5.636-21.99-8.935-34.5-8.935-39.24 0-71.06 31.89-71.06 71.06 0 39.24 31.82 71.06 71.06 71.06 36.84 0 67.14-28.04 70.72-63.91h32.71c0.2749 0 0.4805-0.00049 0.7554-0.0692 1.924 0.0687 3.851-0.6183 5.363-2.062l97.52-97.52 13.4 29.76c-21.3 12.23-35.74 35.33-35.74 61.65 0 39.24 31.82 71.06 71.06 71.06s71.06-31.82 71.06-71.06c0-39.17-31.82-71.06-71.06-71.06-7.766 0-15.33 1.304-22.34 3.572l-36.01-80c-0.1374-0.1374-0.2051-0.3416-0.2739-0.5477v-0.0692c0-3.917-3.23-7.078-7.148-7.078zm33.4 52.09-96.28 96.29-21.99-82.06zm-130.4 23.85 19.59 73.26h-17.11c-1.856-18.69-10.99-35.26-24.53-46.87zm187.6 25.98c29.41 0 53.33 23.85 53.33 53.26s-23.91 53.33-53.33 53.33c-29.41 0-53.26-23.92-53.26-53.33 0-19.17 10.1-35.94 25.29-45.36l21.79 48.24c1.581 3.642 5.843 5.225 9.417 3.575 3.574-1.581 5.156-5.774 3.506-9.348l-21.72-48.25c4.742-1.375 9.761-2.131 14.98-2.131zm-255.8 1.101c8.178 0 15.95 1.856 22.82 5.155l-35.4 42.47c-1.237 1.443-1.787 3.299-1.649 5.086v0.5507c0 3.917 3.162 7.148 7.148 7.148h59.93c-3.505 26.05-25.84 46.18-52.85 46.18-29.41 0.00001-53.33-23.91-53.33-53.33 0-29.41 23.92-53.26 53.33-53.26zm34.84 12.99c9.622 8.316 16.22 20 18.01 33.2h-45.7z"/>
 </g>
</svg>
