<?xml version="1.0" encoding="UTF-8" standalone="no"?>
<svg
   xmlns:dc="http://purl.org/dc/elements/1.1/"
   xmlns:cc="http://creativecommons.org/ns#"
   xmlns:rdf="http://www.w3.org/1999/02/22-rdf-syntax-ns#"
   xmlns:svg="http://www.w3.org/2000/svg"
   xmlns="http://www.w3.org/2000/svg"
   xmlns:sodipodi="http://sodipodi.sourceforge.net/DTD/sodipodi-0.dtd"
   xmlns:inkscape="http://www.inkscape.org/namespaces/inkscape"
   height="96"
   width="96"
   version="1.1"
   viewBox="0 0 96 96"
   id="svg8"
   sodipodi:docname="BikeRide-symbolic.svg"
   inkscape:version="0.92.3 (2405546, 2018-03-11)">
  <metadata
     id="metadata14">
    <rdf:RDF>
      <cc:Work
         rdf:about="">
        <dc:format>image/svg+xml</dc:format>
        <dc:type
           rdf:resource="http://purl.org/dc/dcmitype/StillImage" />
        <dc:title></dc:title>
      </cc:Work>
    </rdf:RDF>
  </metadata>
  <defs
     id="defs12" />
  <sodipodi:namedview
     pagecolor="#ffffff"
     bordercolor="#666666"
     borderopacity="1"
     objecttolerance="10"
     gridtolerance="10"
     guidetolerance="10"
     inkscape:pageopacity="0"
     inkscape:pageshadow="2"
     inkscape:window-width="1294"
     inkscape:window-height="703"
     id="namedview10"
     showgrid="false"
     inkscape:zoom="1.84375"
     inkscape:cx="35.5156"
     inkscape:cy="26.504189"
     inkscape:window-x="72"
     inkscape:window-y="27"
     inkscape:window-maximized="1"
     inkscape:current-layer="svg8" />
  <path
     inkscape:connector-curvature="0"
     id="path4"
     d="m 55.87878,24.003719 c -0.8269,0 -1.4942,0.667299 -1.4942,1.494193 0,0.826894 0.6673,1.50897 1.4942,1.50897 h 4.12074 l 2.27781,5.049605 -25.100245,3.031451 -2.132149,-7.964948 h 1.68292 c 0.84146,0 1.50897,-0.6673 1.50897,-1.494194 0,-0.84146 -0.66751,-1.50897 -1.50897,-1.50897 h -5.22271 c -0.826893,0 -1.50897,0.66751 -1.50897,1.50897 0,0.826894 0.681865,1.494194 1.50897,1.494194 h 0.435297 l 2.510024,9.358234 -6.166343,7.39919 C 26.12242,42.690633 23.64195,41.994201 21.00104,41.994201 12.717325,41.994201 6,48.726303 6,56.995242 c 0,8.283715 6.717325,15.00104 15.00104,15.00104 7.777067,0 14.173514,-5.919352 14.929266,-13.491648 h 6.905207 c 0.05803,0 0.101435,-1.03e-4 0.159468,-0.01461 0.406164,0.0145 0.812961,-0.130526 1.13215,-0.435296 L 64.71398,37.467879 67.54277,43.75033 c -4.49651,2.5818 -7.54485,7.458299 -7.54485,13.014553 0,8.283716 6.71732,15.00104 15.00104,15.00104 8.28372,0 15.00104,-6.717324 15.00104,-15.00104 0,-8.268938 -6.71732,-15.00104 -15.00104,-15.00104 -1.63943,0 -3.23622,0.275279 -4.71606,0.754063 L 62.68105,25.629597 c -0.029,-0.02901 -0.0433,-0.07211 -0.0578,-0.115622 v -0.01461 c 0,-0.826894 -0.68187,-1.494193 -1.50897,-1.494193 z m 7.05087,10.9964 L 42.604565,55.32731 37.962391,38.004127 Z m -27.527949,5.034827 4.135525,15.465469 H 35.925239 C 35.53343,51.554884 33.605208,48.056893 30.746861,45.605977 Z m 39.603089,5.484479 c 6.20856,0 11.25816,5.034827 11.25816,11.243391 0,6.208565 -5.04749,11.258169 -11.25816,11.258169 -6.20857,0 -11.2434,-5.049604 -11.2434,-11.258169 0,-4.046861 2.13215,-7.587073 5.33882,-9.575671 l 4.59995,10.18365 c 0.33376,0.768841 1.23348,1.103018 1.98797,0.754697 0.75448,-0.333756 1.08845,-1.218914 0.74013,-1.973399 L 71.84308,45.966331 c 1.00106,-0.290267 2.06059,-0.449862 3.16234,-0.449862 z M 21.004418,45.75185 c 1.726407,0 3.367107,0.391809 4.81739,1.08824 l -7.473076,8.965581 c -0.261136,0.304623 -0.377243,0.696432 -0.348111,1.073675 V 56.9956 c 0,0.826894 0.667511,1.508971 1.508971,1.508971 h 12.651454 c -0.739919,5.499255 -5.454924,9.748776 -11.156839,9.748776 -6.208565,2e-6 -11.258169,-5.047493 -11.258169,-11.258169 0,-6.208564 5.049604,-11.243391 11.258169,-11.243391 z m 7.354859,2.742239 c 2.031241,1.75554 3.424104,4.222077 3.80198,7.008648 h -9.647446 z"
     style="clip-rule:evenodd;fill:#808080;fill-opacity:1;fill-rule:evenodd;stroke-width:14.50916958;stroke-linejoin:round;stroke-miterlimit:1.41400003" />
</svg>
