<?xml version="1.0" encoding="UTF-8" standalone="no"?>
<svg xmlns="http://www.w3.org/2000/svg" height="512" width="512" version="1.1" viewBox="0 0 512 512">
 <g transform="translate(0 -161.5)">
  <rect style="color-rendering:auto;color:#000000;isolation:auto;mix-blend-mode:normal;paint-order:normal;shape-rendering:auto;solid-color:#000000;image-rendering:auto;fill:#a52a00" height="512" width="512" y="161.5" x="0"/>
  <path style="stroke-width:5.891;fill:#f5f5f5" d="m418 381.3c-1.767-7.658-7.658-9.425-7.658-9.425l-27.69 2.945-25.33-59.5c-2.356-7.069-10.6-17.67-27.1-19.44h-149.6c-16.49 1.767-24.74 12.37-27.1 19.44l-24.74 59.5-27.1-2.356s-5.891 1.767-7.658 9.425-3.534 20.62 13.55 24.74l9.425 1.178c-11.19 21.21-22.97 59.5 8.247 91.89 0.5891 0.5891 8.247 7.069 12.37 7.658v18.85c0 7.069 5.891 12.96 12.96 12.96h17.08c7.069 0 12.96-5.891 12.96-12.96v-17.67h150.8v17.67c0 7.069 5.891 12.96 12.96 12.96h17.67c7.069 0 12.96-5.891 12.96-12.96v-18.8c4.712-1.178 8.836-4.123 11.78-7.658 31.81-31.81 21.8-70.1 11.19-92.48l7.658-0.589c15.9-4.712 14.14-17.67 12.37-25.33zm-244.5-57.7l0.5891-0.5891c0.5891-0.5891 1.767-4.712 8.247-5.302h145.5c6.48 0.589 8.247 4.712 8.247 5.302l24.8 58.9-212.6-0.6zm-10.6 131.4c-10.6 0-18.85-8.247-18.85-18.85s8.247-18.85 18.85-18.85 18.85 8.247 18.85 18.85-8.836 18.85-18.85 18.85zm182.6 0c-10.6 0-18.85-8.247-18.85-18.85s8.247-18.85 18.85-18.85 18.85 8.247 18.85 18.85-8.247 18.85-18.85 18.85z"/>
 </g>
</svg>
