<?xml version="1.0" encoding="UTF-8" standalone="no"?>
<svg
   xmlns:dc="http://purl.org/dc/elements/1.1/"
   xmlns:cc="http://creativecommons.org/ns#"
   xmlns:rdf="http://www.w3.org/1999/02/22-rdf-syntax-ns#"
   xmlns:svg="http://www.w3.org/2000/svg"
   xmlns="http://www.w3.org/2000/svg"
   xmlns:sodipodi="http://sodipodi.sourceforge.net/DTD/sodipodi-0.dtd"
   xmlns:inkscape="http://www.inkscape.org/namespaces/inkscape"
   height="96"
   width="96"
   version="1.1"
   viewBox="0 0 96 96"
   id="svg36"
   sodipodi:docname="Hike-symbolic.svg"
   inkscape:version="0.92.3 (2405546, 2018-03-11)">
  <metadata
     id="metadata42">
    <rdf:RDF>
      <cc:Work
         rdf:about="">
        <dc:format>image/svg+xml</dc:format>
        <dc:type
           rdf:resource="http://purl.org/dc/dcmitype/StillImage" />
        <dc:title></dc:title>
      </cc:Work>
    </rdf:RDF>
  </metadata>
  <defs
     id="defs40" />
  <sodipodi:namedview
     pagecolor="#ffffff"
     bordercolor="#666666"
     borderopacity="1"
     objecttolerance="10"
     gridtolerance="10"
     guidetolerance="10"
     inkscape:pageopacity="0"
     inkscape:pageshadow="2"
     inkscape:window-width="1294"
     inkscape:window-height="703"
     id="namedview38"
     showgrid="false"
     inkscape:zoom="0.4609375"
     inkscape:cx="118.23728"
     inkscape:cy="229.9661"
     inkscape:window-x="72"
     inkscape:window-y="27"
     inkscape:window-maximized="1"
     inkscape:current-layer="svg36" />
  <path
     inkscape:connector-curvature="0"
     id="path32"
     d="m 62.868004,14.53232 c 0,4.77463 -3.86106,8.53231 -8.53232,8.53231 -4.67126,0 -8.53231,-3.86105 -8.53231,-8.53231 0,-4.67127 3.86105,-8.53232 8.53231,-8.53232 4.67126,0 8.53232,3.86105 8.53232,8.53232 z m -21.73589,10.97131 c 0.50791,-1.72686 -0.60934,-4.06221 -2.84411,-4.16558 -1.21894,0 -3.75768,-0.10158 -5.68821,-0.10158 -1.92997,0 -3.65711,0.3048 -4.16558,2.03138 l -8.12721,22.44832 c -0.50792,1.72685 0.40622,3.55373 2.13308,4.06221 l 6.19668,2.5393 c 1.72686,0.60933 3.65711,-0.30481 4.16558,-2.03139 z m 33.0229,19.70479 -0.81272,-0.40622 V 33.83088 h -3.04805 v 9.44589 l -6.70516,-3.14863 -8.32837,-11.58037 c -1.32035,-2.64099 -3.75768,-4.67126 -7.71931,-4.0622 -3.65711,0.50791 -4.97579,4.57068 -5.89216,9.04079 l -2.43788,11.88489 -2.03139,9.24194 c -0.10158,0.40623 -0.10158,0.71103 -0.10158,1.01584 l -2.13308,10.56342 -12.49395,15.74315 c -1.42205,1.72686 -1.11724,4.36674 0.71103,5.68821 0.71103,0.60933 1.52347,0.81272 2.43788,0.91414 1.21895,0 2.43789,-0.50792 3.24921,-1.52347 l 13.00242,-16.55616 c 0.40623,-0.50791 0.60934,-1.01583 0.81273,-1.62516 l 2.03138,-9.34531 7.81989,10.35947 0.81272,16.25163 C 53.430214,88.27202 55.156904,90 57.290254,90 h 0.30481 c 2.23449,-0.10158 3.96163,-2.03138 3.86105,-4.26616 l -0.91413,-17.5731 c 0,-0.81272 -0.30481,-1.62517 -0.81272,-2.2345 l -7.41479,-9.85379 3.45315,-16.3522 3.24921,4.57068 c 0.30481,0.40622 0.71103,0.71103 1.11725,1.01583 l 10.05494,4.77463 v 38.69436 h 3.04806 V 50.94748 c 0.91414,-0.10159 1.82827,-0.71103 2.23449,-1.72686 0.81272,-1.42205 0.20314,-3.24921 -1.32035,-3.96163 z"
     style="fill:#808080;fill-opacity:1;stroke-width:1.01583159" />
</svg>
