<?xml version="1.0" encoding="UTF-8" standalone="no"?>
<svg xmlns="http://www.w3.org/2000/svg" height="512" width="512" version="1.1" viewBox="0 0 512 512">
 <g transform="translate(0 -161.5)">
  <rect style="color-rendering:auto;color:#000000;isolation:auto;mix-blend-mode:normal;paint-order:normal;shape-rendering:auto;solid-color:#000000;image-rendering:auto;fill:#77216f" height="512" width="512" y="161.5" x="0"/>
  <path style="stroke-width:3.636;fill:#f5f5f5" d="m309.2 297.7c0 17.09-13.82 30.54-30.54 30.54s-30.54-13.82-30.54-30.54 13.82-30.54 30.54-30.54 30.54 13.82 30.54 30.54zm-77.8 39.27c1.818-6.181-2.181-14.54-10.18-14.91-4.363 0-13.45-0.3636-20.36-0.3636-6.908 0-13.09 1.091-14.91 7.271l-29.09 80.35c-1.818 6.181 1.454 12.72 7.635 14.54l22.18 9.089c6.181 2.181 13.09-1.091 14.91-7.271zm118.2 70.53-2.909-1.454v-39.27h-10.91v33.81l-24-11.27-29.81-41.45c-4.726-9.453-13.45-16.72-27.63-14.54-13.09 1.818-17.81 16.36-21.09 32.36l-8.726 42.54-7.271 33.08c-0.3636 1.454-0.3636 2.545-0.3636 3.636l-7.635 37.81-44.72 56.35c-5.09 6.181-3.999 15.63 2.545 20.36 2.545 2.181 5.453 2.909 8.726 3.272 4.363 0 8.726-1.818 11.63-5.453l46.54-59.26c1.454-1.818 2.181-3.636 2.909-5.817l7.271-33.45 27.99 37.08 2.909 58.17c0.3636 7.635 6.544 13.82 14.18 13.82h1.091c7.998-0.3636 14.18-7.271 13.82-15.27l-3.272-62.9c0-2.909-1.091-5.817-2.909-7.998l-26.54-35.27 12.36-58.53 11.63 16.36c1.091 1.454 2.545 2.545 3.999 3.636l35.99 17.09v138.5h10.91v-135.4c3.272-0.3636 6.544-2.545 7.998-6.181 2.909-5.09 0.7271-11.63-4.726-14.18z"/>
 </g>
</svg>
