<?xml version="1.0" encoding="UTF-8" standalone="no"?>
<svg
   xmlns:dc="http://purl.org/dc/elements/1.1/"
   xmlns:cc="http://creativecommons.org/ns#"
   xmlns:rdf="http://www.w3.org/1999/02/22-rdf-syntax-ns#"
   xmlns:svg="http://www.w3.org/2000/svg"
   xmlns="http://www.w3.org/2000/svg"
   xmlns:sodipodi="http://sodipodi.sourceforge.net/DTD/sodipodi-0.dtd"
   xmlns:inkscape="http://www.inkscape.org/namespaces/inkscape"
   height="96"
   width="96"
   version="1.1"
   viewBox="0 0 96 96"
   id="svg54"
   sodipodi:docname="Run-symbolic.svg"
   inkscape:version="0.92.3 (2405546, 2018-03-11)">
  <metadata
     id="metadata60">
    <rdf:RDF>
      <cc:Work
         rdf:about="">
        <dc:format>image/svg+xml</dc:format>
        <dc:type
           rdf:resource="http://purl.org/dc/dcmitype/StillImage" />
        <dc:title></dc:title>
      </cc:Work>
    </rdf:RDF>
  </metadata>
  <defs
     id="defs58" />
  <sodipodi:namedview
     pagecolor="#ffffff"
     bordercolor="#666666"
     borderopacity="1"
     objecttolerance="10"
     gridtolerance="10"
     guidetolerance="10"
     inkscape:pageopacity="0"
     inkscape:pageshadow="2"
     inkscape:window-width="1294"
     inkscape:window-height="703"
     id="namedview56"
     showgrid="false"
     inkscape:zoom="1.84375"
     inkscape:cx="-12.251289"
     inkscape:cy="63.846954"
     inkscape:window-x="72"
     inkscape:window-y="27"
     inkscape:window-maximized="1"
     inkscape:current-layer="svg54" />
  <path
     style="fill:#808080;fill-opacity:1;stroke-width:0.86894453"
     d="m 88.810494,31.78028 c -0.7499,-0.93759 -1.87779,-1.49806 -2.9996,-1.49806 -1.12702,0 -2.0594,0.37365 -3.00481,1.12442 l -8.25236,7.68755 c 0,0 -20.62874,-19.31664 -24.19142,-23.07048 -1.12181,-1.12268 -2.0594,-1.49806 -3.0022,-1.49806 -0.37625,0 -0.75077,0.18856 -1.12702,0.18856 l -16.50126,3.93632 c -2.44086,0.56482 -3.75297,2.81364 -3.19163,5.06508 0.37712,2.062 2.25404,3.37585 4.12922,3.37585 0.37365,0 0.56047,-0.18683 0.93759,-0.18683 l 14.07691,-3.38019 c 0.93759,1.12441 5.62989,6.00006 6.37805,6.93852 -5.81672,6.18689 -11.62648,12.37377 -17.43972,18.56935 -3.54442,4.44552 -5.26233,8.33665 -8.62688,12.56494 L 9.4941037,64.77758 c -2.43304,0.37539 -3.93979,2.62508 -3.37585,5.06334 0.37104,2.06201 2.25144,3.56441 4.3134403,3.56441 h 0.74817 l 18.19569,-3.56441 c 0.93759,-0.18682 1.87171,-0.74903 2.43565,-1.49806 l 8.24976,-9.94072 13.5034,6.93852 -9.18474,15.00667 c -1.31124,2.06461 -0.74729,4.87391 1.31124,6.18949 0.74989,0.37539 1.49805,0.56221 2.43565,0.56221 1.31645,0 2.81799,-0.75077 3.75471,-2.06461 l 11.63517,-19.14285 c 0.74728,-0.93846 0.92977,-2.25057 0.55612,-3.3715 -0.37365,-1.31211 -1.12094,-2.25057 -2.25057,-2.81539 l -12.1826,-6.18688 12.74742,-13.5034 9.56708,8.06381 c 0.93759,0.74903 1.8717,0.93759 2.80929,0.93759 1.12442,0 2.06722,-0.37539 2.81799,-1.12441 l 11.05298,-10.1319 c 1.69357,-1.6901 1.87518,-4.31257 0.19029,-6.00354 z"
     id="path46"
     inkscape:connector-curvature="0" />
  <path
     style="fill:#808080;fill-opacity:1;stroke-width:0.86894453"
     d="m 71.370774,28.03513 c 5.24756,0 9.55839,-4.31344 9.55839,-9.56708 0,-5.25277 -4.30996,-9.56708 -9.55839,-9.56708 -5.25711,0 -9.56708,4.31431 -9.56708,9.56708 0,5.2519 4.31605,9.56708 9.56708,9.56708 z"
     id="path48"
     inkscape:connector-curvature="0" />
</svg>
