<?xml version="1.0" encoding="UTF-8" standalone="no"?>
<svg xmlns="http://www.w3.org/2000/svg" height="512" width="512" version="1.1" viewBox="0 0 512 512">
 <g transform="translate(0 -161.5)">
  <rect style="color-rendering:auto;color:#000000;isolation:auto;mix-blend-mode:normal;paint-order:normal;shape-rendering:auto;solid-color:#000000;image-rendering:auto;fill:#4e46c5" height="512" width="512" y="161.5" x="0"/>
  <g style="fill:#f5f5f5" transform="matrix(2.855 0 0 2.855 113.2 274.8)">
   <path style="fill:#f5f5f5" d="m96.98 31.33c-0.863-1.079-2.161-1.724-3.452-1.724-1.297 0-2.37 0.43-3.458 1.294l-9.497 8.847s-23.74-22.23-27.84-26.55c-1.291-1.292-2.37-1.724-3.455-1.724-0.433 0-0.864 0.217-1.297 0.217l-18.99 4.53c-2.809 0.65-4.319 3.238-3.673 5.829 0.434 2.373 2.594 3.885 4.752 3.885 0.43 0 0.645-0.215 1.079-0.215l16.2-3.89c1.079 1.294 6.479 6.905 7.34 7.985-6.694 7.12-13.38 14.24-20.07 21.37-4.079 5.116-6.056 9.594-9.928 14.46l-18.99 3.66c-2.8 0.432-4.534 3.021-3.885 5.827 0.427 2.373 2.591 4.102 4.964 4.102h0.861l20.94-4.102c1.079-0.215 2.154-0.862 2.803-1.724l9.494-11.44 15.54 7.985-10.57 17.27c-1.509 2.376-0.86 5.609 1.509 7.123 0.863 0.432 1.724 0.647 2.803 0.647 1.515 0 3.243-0.864 4.321-2.376l13.39-22.03c0.86-1.08 1.07-2.59 0.64-3.88-0.43-1.51-1.29-2.59-2.59-3.24l-14.02-7.12 14.67-15.54 11.01 9.28c1.079 0.862 2.154 1.079 3.233 1.079 1.294 0 2.379-0.432 3.243-1.294l12.72-11.66c1.949-1.945 2.158-4.963 0.219-6.909z"/>
   <path style="fill:#f5f5f5" d="m76.91 27.02c6.039 0 11-4.964 11-11.01 0-6.045-4.96-11.01-11-11.01-6.05 0-11.01 4.965-11.01 11.01 0 6.044 4.967 11.01 11.01 11.01z"/>
  </g>
 </g>
</svg>
