<?xml version="1.0" encoding="UTF-8" standalone="no"?>
<!-- Generator: Adobe Illustrator 16.0.0, SVG Export Plug-In . SVG Version: 6.00 Build 0)  -->

<svg
   xmlns:dc="http://purl.org/dc/elements/1.1/"
   xmlns:cc="http://creativecommons.org/ns#"
   xmlns:rdf="http://www.w3.org/1999/02/22-rdf-syntax-ns#"
   xmlns:svg="http://www.w3.org/2000/svg"
   xmlns="http://www.w3.org/2000/svg"
   xmlns:sodipodi="http://sodipodi.sourceforge.net/DTD/sodipodi-0.dtd"
   xmlns:inkscape="http://www.inkscape.org/namespaces/inkscape"
   version="1.1"
   id="Capa_1"
   x="0px"
   y="0px"
   width="487.811px"
   height="487.81px"
   viewBox="0 0 487.811 487.81"
   style="enable-background:new 0 0 487.811 487.81;"
   xml:space="preserve"
   sodipodi:docname="runman.svg"
   inkscape:version="0.92.3 (2405546, 2018-03-11)"><metadata
   id="metadata54"><rdf:RDF><cc:Work
       rdf:about=""><dc:format>image/svg+xml</dc:format><dc:type
         rdf:resource="http://purl.org/dc/dcmitype/StillImage" /></cc:Work></rdf:RDF></metadata><defs
   id="defs52">



	</defs><sodipodi:namedview
   pagecolor="#ffffff"
   bordercolor="#666666"
   borderopacity="1"
   objecttolerance="10"
   gridtolerance="10"
   guidetolerance="10"
   inkscape:pageopacity="0"
   inkscape:pageshadow="2"
   inkscape:window-width="1294"
   inkscape:window-height="704"
   id="namedview50"
   showgrid="false"
   inkscape:zoom="0.48379492"
   inkscape:cx="322.45118"
   inkscape:cy="243.905"
   inkscape:window-x="72"
   inkscape:window-y="27"
   inkscape:window-maximized="1"
   inkscape:current-layer="Capa_1" />
<g
   id="g14"
   style="fill:#808080;fill-opacity:1"
   inkscape:label="runman">
			<path
   d="m 150.463,109.521 h 150.512 c 3.955,0 7.16,-3.206 7.16,-7.161 0,-3.955 -3.205,-7.161 -7.16,-7.161 H 150.463 c -3.955,0 -7.161,3.206 -7.161,7.161 0,3.955 3.206,7.161 7.161,7.161 z"
   id="path2"
   style="fill:#808080;fill-opacity:1"
   inkscape:connector-curvature="0"
   inkscape:label="line4" />
			<path
   d="m 15.853,179.537 h 150.511 c 3.955,0 7.161,-3.206 7.161,-7.161 0,-3.955 -3.206,-7.16 -7.161,-7.16 H 15.853 c -3.955,0 -7.161,3.205 -7.161,7.16 0,3.955 3.206,7.161 7.161,7.161 z"
   id="path4"
   style="fill:#808080;fill-opacity:1"
   inkscape:connector-curvature="0"
   inkscape:label="line3" />
			<path
   d="m 56.258,253.214 c 0,3.955 3.206,7.162 7.161,7.162 H 213.93 c 3.955,0 7.161,-3.207 7.161,-7.162 0,-3.955 -3.206,-7.16 -7.161,-7.16 H 63.419 c -3.955,0 -7.161,3.205 -7.161,7.16 z"
   id="path6"
   style="fill:#808080;fill-opacity:1"
   inkscape:connector-curvature="0"
   inkscape:label="line2" />
			<path
   d="M 142.396,336.44 H 7.161 C 3.206,336.44 0,339.645 0,343.6 c 0,3.955 3.206,7.161 7.161,7.161 h 135.235 c 3.955,0 7.161,-3.206 7.161,-7.161 0,-3.955 -3.206,-7.16 -7.161,-7.16 z"
   id="path8"
   style="fill:#808080;fill-opacity:1"
   inkscape:connector-curvature="0"
   inkscape:label="line1" />
			<path
   d="m 385.729,154.418 c 21.6,0 39.111,-17.513 39.111,-39.114 0,-21.601 -17.512,-39.113 -39.111,-39.113 -21.605,0 -39.119,17.513 -39.119,39.113 -0.001,21.601 17.513,39.114 39.119,39.114 z"
   id="path10"
   style="fill:#808080;fill-opacity:1"
   inkscape:connector-curvature="0"
   inkscape:label="head" />
			<path
   d="m 450.066,143.155 c -22.459,31.459 -52.533,35.102 -84.895,15.89 -2.203,-1.306 -11.977,-6.691 -14.141,-7.977 -52.061,-30.906 -104.061,-18.786 -138.934,30.05 -14.819,20.771 19.455,40.459 34.108,19.93 18.018,-25.232 40.929,-32.533 65.986,-24.541 -12.83,22.27 -24.047,44.405 -39.875,75.853 -15.832,31.448 -50.787,56.562 -84.374,36.92 -24.235,-14.165 -46.09,20.651 -21.928,34.772 45.854,26.799 99.619,10.343 127.066,-24.493 0.952,0.509 1.958,0.968 3.062,1.354 22.422,7.812 51.814,28.61 60.77,35.981 8.953,7.371 24.336,44.921 33.471,63.788 11.082,22.893 46.871,6.219 35.748,-16.771 -10.355,-21.406 -27.736,-64.129 -41.293,-74.938 -10.875,-8.669 -31.988,-24.803 -49.895,-33.956 12.115,-23.466 24.729,-46.679 38.008,-69.491 42.328,12.969 82.561,-2.308 111.215,-42.446 14.831,-20.768 -19.435,-40.456 -34.099,-19.925 z"
   id="path12"
   style="fill:#808080;fill-opacity:1"
   inkscape:connector-curvature="0"
   inkscape:label="body" />
		</g>
</svg>
