<?xml version="1.0" encoding="UTF-8" standalone="no"?>
<svg
   xmlns:dc="http://purl.org/dc/elements/1.1/"
   xmlns:cc="http://creativecommons.org/ns#"
   xmlns:rdf="http://www.w3.org/1999/02/22-rdf-syntax-ns#"
   xmlns:svg="http://www.w3.org/2000/svg"
   xmlns="http://www.w3.org/2000/svg"
   xmlns:sodipodi="http://sodipodi.sourceforge.net/DTD/sodipodi-0.dtd"
   xmlns:inkscape="http://www.inkscape.org/namespaces/inkscape"
   height="96"
   width="96"
   version="1.1"
   viewBox="0 0 96 96"
   id="svg76"
   sodipodi:docname="Walk-symbolic.svg"
   inkscape:version="0.92.3 (2405546, 2018-03-11)">
  <metadata
     id="metadata82">
    <rdf:RDF>
      <cc:Work
         rdf:about="">
        <dc:format>image/svg+xml</dc:format>
        <dc:type
           rdf:resource="http://purl.org/dc/dcmitype/StillImage" />
        <dc:title></dc:title>
      </cc:Work>
    </rdf:RDF>
  </metadata>
  <defs
     id="defs80" />
  <sodipodi:namedview
     pagecolor="#ffffff"
     bordercolor="#666666"
     borderopacity="1"
     objecttolerance="10"
     gridtolerance="10"
     guidetolerance="10"
     inkscape:pageopacity="0"
     inkscape:pageshadow="2"
     inkscape:window-width="1294"
     inkscape:window-height="703"
     id="namedview78"
     showgrid="false"
     inkscape:zoom="0.4609375"
     inkscape:cx="165.9661"
     inkscape:cy="197.42373"
     inkscape:window-x="72"
     inkscape:window-y="27"
     inkscape:window-maximized="1"
     inkscape:current-layer="g74" />
  <g
     transform="translate(0,-577.5)"
     id="g74">
    <path
       inkscape:connector-curvature="0"
       id="path64"
       d="m 24.13743,621.51152 1.941931,-3.53079 c 3.001166,-5.47271 7.502916,-9.97446 12.975631,-12.97563 3.089436,-1.67712 4.50175,-2.11847 5.914063,-2.11847 l 6.531951,0.44135 c 1.941931,0.0883 3.354245,0.97097 9.003499,8.20908 1.677122,2.11846 3.619054,3.97213 5.914062,5.47271 l 4.060404,2.64809 c 1.853659,1.23577 2.383277,3.61905 1.147504,5.47271 -1.235774,1.85366 -3.619055,2.38328 -5.472714,1.14751 l -4.060403,-2.64809 c -2.824627,-1.85366 -5.384446,-4.14867 -7.502916,-6.79676 l -3.177706,15.0941 6.178872,6.00233 c 2.471549,2.38328 4.236941,5.47272 5.031367,8.91523 l 3.619053,14.74103 c 0.617888,2.55981 -0.970965,5.11963 -3.530783,5.73752 -0.353078,0.0883 -0.794427,0.17654 -1.147505,0.17654 -2.11847,0 -4.060401,-1.41231 -4.590019,-3.61905 L 53.354667,649.1399 c -0.441347,-1.67712 -1.235774,-3.1777 -2.471549,-4.32521 l -6.178872,-6.00233 -0.617887,4.14867 c -0.353078,2.11847 -0.970965,4.14867 -1.853661,6.0906 l -7.414647,15.71199 c -0.794426,1.67713 -2.559818,2.73636 -4.32521,2.73636 -0.706157,0 -1.324044,-0.17654 -2.030201,-0.44135 -2.383279,-1.1475 -3.354245,-3.97213 -2.29501,-6.35541 l 7.414647,-15.71199 c 0.529618,-1.05923 0.882696,-2.29501 1.059235,-3.44251 l 2.11847,-14.12314 1.500584,-12.1812 c -2.030201,1.85366 -3.795593,3.97213 -5.207907,6.44368 l -1.941931,3.53078 c -0.706157,1.32404 -2.11847,2.0302 -3.442514,2.0302 -0.617887,0 -1.324044,-0.17654 -1.853662,-0.44135 -1.941931,-0.97096 -2.648088,-3.35424 -1.677122,-5.29617 z"
       style="fill:#808080;fill-opacity:1;stroke-width:0.88269597" />
    <circle
       id="circle66"
       r="8.7384367"
       cx="-583.41217"
       cy="113.228"
       transform="rotate(-83.788255)"
       style="fill:#808080;fill-opacity:1;stroke-width:0.8826704" />
  </g>
</svg>
